<?xml version="1.0" encoding="UTF-8"?>
<!-- Generator: visioncortex VTracer 0.6.3 -->
<svg version="1.1" xmlns="http://www.w3.org/2000/svg" width="250" height="250">
<path d="M0 0 C10.35 5.81 15.86 14.5 19.75 25.56 C20.09 27.58 20.39 29.6 20.62 31.62 C21.07 35.34 21.07 35.34 23.5 37.96 C25.61 38.96 25.61 38.96 27.78 39.74 C30.72 40.97 32.04 42.94 33.75 45.56 C34.14 46.16 34.53 46.76 34.94 47.38 C35.75 49.56 35.75 49.56 35.69 53.38 C35.81 55.54 35.81 55.54 36.75 57.56 C39.28 59.56 41.96 61.06 44.76 62.66 C53.14 67.98 58.8 76.16 61.75 85.56 C63.36 92.84 62.98 98.83 59.75 105.56 C59.47 106.17 59.18 106.77 58.89 107.39 C55.09 113.87 46.65 118.91 39.66 121.27 C27.07 123.2 15.86 119.54 5.42 112.57 C2.59 110.44 0.01 108.12 -2.62 105.75 C-8.84 100.47 -15.26 99.56 -23.25 99.56 C-23.03 100.19 -22.82 100.81 -22.59 101.45 C-17.52 118.29 -19.12 135.6 -26.94 151.25 C-29.75 156.15 -33.2 160.13 -37.09 164.2 C-39.08 166.37 -40.64 168.55 -42.25 171 C-45.45 175.37 -49.04 176.58 -54.25 177.56 C-57.26 178.02 -60.21 178.32 -63.25 178.56 C-63.25 179.22 -63.25 179.88 -63.25 180.56 C-62.56 180.53 -61.87 180.49 -61.16 180.46 C-53.24 180.23 -46.75 180.82 -40.38 185.81 C-36.51 190.81 -34.79 195.24 -35.25 201.56 C-32.94 201.89 -30.63 202.22 -28.25 202.56 C-28.25 203.55 -28.25 204.54 -28.25 205.56 C-34.2 207.53 -39.95 208.2 -46.19 208.67 C-47.86 208.8 -47.86 208.8 -49.57 208.93 C-65 209.96 -80.45 209.86 -95.91 209.82 C-100.3 209.81 -104.7 209.82 -109.09 209.83 C-125.02 209.87 -140.92 209.82 -156.82 208.67 C-157.89 208.59 -158.97 208.52 -160.07 208.44 C-165.38 207.99 -170.19 207.25 -175.25 205.56 C-175.25 204.57 -175.25 203.58 -175.25 202.56 C-172.94 202.23 -170.63 201.9 -168.25 201.56 C-168.31 200.55 -168.37 199.54 -168.44 198.5 C-168.15 192.47 -166.46 188.37 -162 184.31 C-154.9 178.78 -148.01 177.98 -139.25 177.56 C-139.97 177.4 -140.7 177.25 -141.45 177.08 C-147.62 175.59 -151.89 174.27 -156.25 169.56 C-156.39 168.91 -156.53 168.26 -156.68 167.58 C-157.43 164.93 -158.55 164.3 -160.75 162.69 C-171.45 153.7 -177.32 140.16 -179.25 126.56 C-180.24 114.52 -177.86 103.03 -172.56 92.25 C-172.26 91.63 -171.96 91.01 -171.65 90.37 C-170.09 87.39 -168.7 84.99 -166.23 82.67 C-159.49 76.07 -159.39 69.78 -159.29 60.83 C-159.29 57.74 -159.33 54.65 -159.38 51.56 C-159.39 48.44 -159.39 45.32 -159.38 42.2 C-159.38 40.26 -159.4 38.33 -159.42 36.39 C-159.43 35.53 -159.44 34.66 -159.44 33.76 C-159.45 33 -159.46 32.23 -159.47 31.44 C-159.25 29.56 -159.25 29.56 -157.25 27.56 C-153.22 27.82 -150.26 30.5 -147.12 32.81 C-146.52 33.24 -145.92 33.67 -145.31 34.12 C-141.7 36.72 -138.17 39.4 -134.68 42.15 C-133.9 42.75 -133.13 43.35 -132.32 43.96 C-130.81 45.13 -129.3 46.32 -127.82 47.53 C-123.9 50.51 -121.37 51.97 -116.39 51.41 C-115.55 51.27 -114.71 51.12 -113.85 50.97 C-111.12 50.54 -108.66 50.55 -105.91 50.67 C-91.53 51 -83.07 47.8 -71.62 39.3 C-67.49 36.27 -63.18 33.52 -58.88 30.75 C-58.08 30.22 -57.29 29.68 -56.48 29.13 C-50.93 25.52 -50.93 25.52 -47.21 25.74 C-46.56 26.01 -45.92 26.28 -45.25 26.56 C-44.36 31.9 -44.13 37.01 -44.14 42.42 C-44.13 44.11 -44.12 45.8 -44.1 47.49 C-44.08 50.13 -44.06 52.77 -44.07 55.41 C-44.08 57.98 -44.05 60.54 -44.02 63.11 C-44.04 64.29 -44.04 64.29 -44.06 65.5 C-44.06 68.02 -44.06 68.02 -43.25 71.56 C-40.37 74.15 -40.37 74.15 -37.25 75.56 C-37.28 74.08 -37.28 74.08 -37.31 72.56 C-37.35 69.78 -37.07 67.79 -36.44 65 C-35.64 59.57 -38.06 54.8 -40.02 49.83 C-43.72 39.98 -44.32 25.59 -40.56 15.69 C-33 0.85 -15.67 -7.21 0 0 Z M-15.25 20.56 C-16.2 23.12 -16.3 24.4 -15.56 27.06 C-13.71 30.58 -11.85 33.03 -8 34.31 C-7.42 34.39 -6.84 34.48 -6.25 34.56 C-5.64 28.63 -5.64 28.63 -8.5 23.62 C-10.93 21.8 -12.28 20.89 -15.25 20.56 Z M28.75 83.56 C27.68 86.87 27.68 88.36 28.88 91.69 C30.9 94.79 32.42 96.02 35.75 97.56 C36.41 97.56 37.07 97.56 37.75 97.56 C38.18 93.31 38.17 90.55 35.5 87.19 C32.55 84.32 32.55 84.32 28.75 83.56 Z " fill="#1C1C1C" transform="translate(183.25,21.4375)"/>
<path d="M0 0 C0.26 0.65 0.51 1.3 0.78 1.98 C4.35 10.12 8.67 13.74 16.78 17.18 C20.8 18.69 24.58 19.92 28.81 20.69 C35.14 23.29 37.69 29.97 40.25 36 C43.29 43.69 44.37 51.34 44.31 59.56 C44.31 60.43 44.3 61.3 44.3 62.19 C44.04 77.25 41.16 98.84 30 110 C-44.43 117.25 -44.43 117.25 -61.53 105.22 C-71.79 96.03 -80.44 83.75 -81.41 69.59 C-82.1 49.72 -75.32 34.21 -61.86 19.7 C-44.64 2.79 -23.19 -0.88 0 0 Z " fill="#FCFCFC" transform="translate(91,78)"/>
<path d="M0 0 C10.35 5.81 15.86 14.5 19.75 25.56 C20.09 27.58 20.39 29.6 20.62 31.62 C21.07 35.34 21.07 35.34 23.5 37.96 C25.61 38.96 25.61 38.96 27.78 39.74 C30.72 40.97 32.04 42.94 33.75 45.56 C34.14 46.16 34.53 46.76 34.94 47.38 C35.75 49.56 35.75 49.56 35.69 53.38 C35.81 55.54 35.81 55.54 36.75 57.56 C39.28 59.56 41.96 61.06 44.76 62.66 C53.14 67.98 58.8 76.16 61.75 85.56 C63.36 92.84 62.98 98.83 59.75 105.56 C59.47 106.17 59.18 106.77 58.89 107.39 C55.09 113.87 46.65 118.91 39.66 121.27 C27.08 123.2 15.85 119.55 5.43 112.57 C2.57 110.43 -0.07 108.11 -2.75 105.75 C-7.39 101.81 -11 100.42 -17.04 99.88 C-19.25 99.56 -19.25 99.56 -21.25 97.56 C-19.93 97.56 -18.61 97.56 -17.25 97.56 C-16.75 96.08 -16.75 96.08 -16.25 94.56 C-15.57 94.62 -14.9 94.68 -14.2 94.74 C-8.42 95.19 -8.42 95.19 -3.69 92.25 C-0.95 87.13 -0.43 82.81 -1.86 77.13 C-4.49 69.53 -8.85 65.03 -15.81 61.12 C-19.14 60.36 -21.84 60.2 -25.25 60.56 C-28 62.36 -29.78 63.62 -31.25 66.56 C-31.29 68.9 -31.29 71.23 -31.25 73.56 C-31.91 73.56 -32.57 73.56 -33.25 73.56 C-33.75 71.09 -33.75 71.09 -34.25 68.56 C-34.33 69.68 -34.41 70.79 -34.5 71.94 C-35.25 75.56 -35.25 75.56 -37.31 77 C-37.95 77.19 -38.59 77.37 -39.25 77.56 C-39.25 76.57 -39.25 75.58 -39.25 74.56 C-38.59 74.89 -37.93 75.22 -37.25 75.56 C-37.27 74.57 -37.29 73.58 -37.31 72.56 C-37.35 69.78 -37.07 67.79 -36.44 65 C-35.64 59.57 -38.06 54.8 -40.02 49.83 C-43.72 39.98 -44.32 25.59 -40.56 15.69 C-33 0.85 -15.67 -7.21 0 0 Z M-15.25 20.56 C-16.2 23.12 -16.3 24.4 -15.56 27.06 C-13.71 30.58 -11.85 33.03 -8 34.31 C-7.42 34.39 -6.84 34.48 -6.25 34.56 C-5.64 28.63 -5.64 28.63 -8.5 23.62 C-10.93 21.8 -12.28 20.89 -15.25 20.56 Z M28.75 83.56 C27.68 86.87 27.68 88.36 28.88 91.69 C30.9 94.79 32.42 96.02 35.75 97.56 C36.41 97.56 37.07 97.56 37.75 97.56 C38.18 93.31 38.17 90.55 35.5 87.19 C32.55 84.32 32.55 84.32 28.75 83.56 Z " fill="#151515" transform="translate(183.25,21.4375)"/>
<path d="M0 0 C9.6 4.42 14.86 12.89 18.86 22.29 C19.92 26.6 20.28 30.93 20.61 35.35 C15.63 37.73 10.63 40.05 5.61 42.35 C4.66 42.79 3.7 43.23 2.72 43.68 C-0.35 45.09 -3.43 46.47 -6.52 47.85 C-7.51 48.31 -8.51 48.77 -9.53 49.24 C-10.48 49.66 -11.42 50.08 -12.4 50.51 C-13.24 50.89 -14.08 51.27 -14.95 51.66 C-17.8 52.47 -19.56 52.15 -22.39 51.35 C-23.2 48.77 -24.02 46.19 -24.83 43.6 C-25.06 42.87 -25.29 42.14 -25.53 41.39 C-25.86 40.33 -25.86 40.33 -26.2 39.24 C-26.4 38.59 -26.61 37.94 -26.82 37.27 C-29.63 27.82 -29.51 17.88 -25.74 8.7 C-20.22 -0.92 -10.31 -2.8 0 0 Z M-11.39 17.35 C-12.34 19.91 -12.44 21.19 -11.7 23.85 C-9.85 27.37 -7.99 29.82 -4.14 31.1 C-3.56 31.18 -2.99 31.27 -2.39 31.35 C-1.78 25.42 -1.78 25.42 -4.64 20.41 C-7.07 18.59 -8.42 17.68 -11.39 17.35 Z " fill="#7A7A7A" transform="translate(179.390625,24.6484375)"/>
<path d="M0 0 C10.05 3.73 18.64 11.81 23.5 21.38 C25.78 27.21 26.12 33.29 24.3 39.3 C22.14 44.12 19.29 46.98 15 50 C6.83 52.72 -2.5 51.6 -10.34 48.33 C-18.43 44.28 -25.43 39.19 -32 33 C-30.66 29.99 -29.23 28.03 -26.8 25.82 C-26.15 25.23 -25.51 24.63 -24.84 24.02 C-24.15 23.4 -23.46 22.77 -22.75 22.12 C-14.96 14.95 -7.44 7.54 0 0 Z M-4 22 C-5.07 25.31 -5.07 26.8 -3.88 30.12 C-1.85 33.23 -0.33 34.46 3 36 C3.66 36 4.32 36 5 36 C5.43 31.74 5.42 28.99 2.75 25.62 C-0.2 22.76 -0.2 22.76 -4 22 Z " fill="#7A7A7A" transform="translate(216,83)"/>
<path d="M0 0 C2.63 2.39 4.77 5.24 7 8 C7.52 8.62 8.04 9.25 8.58 9.89 C18.51 22.33 23.68 38.04 22 54 C19.79 67.75 13.75 78.22 4 88 C3.5 88.59 3 89.17 2.48 89.78 C1 91 1 91 -3 91 C-3 90.34 -3 89.68 -3 89 C-3.66 89 -4.32 89 -5 89 C-6.5 83.26 -5.48 80.17 -3.12 74.81 C3.61 57.92 5.22 33.79 -1.93 16.79 C-4.09 12.09 -6.49 7.53 -9 3 C-3.38 0 -3.38 0 0 0 Z " fill="#F0F0F0" transform="translate(136,96)"/>
<path d="M0 0 C3.93 3.11 5.76 5.32 6.46 10.26 C5.91 14.75 4.9 15.68 1.53 18.43 C0.9 18.9 0.27 19.38 -0.38 19.88 C-1.66 20.91 -2.95 21.94 -4.23 22.98 C-4.87 23.49 -5.51 23.99 -6.17 24.51 C-9.58 27.28 -12.73 30.34 -15.91 33.36 C-18.01 35.01 -19.38 35.6 -22 36 C-22.21 35.44 -22.42 34.89 -22.63 34.31 C-26.24 25.36 -31.3 19.26 -40 15 C-38.54 12.09 -36.57 11.75 -33.61 10.47 C-32.51 9.99 -31.41 9.51 -30.27 9.01 C-29.11 8.51 -27.95 8.01 -26.75 7.5 C-25.6 7 -24.46 6.5 -23.28 5.99 C-6.67 -1.22 -6.67 -1.22 0 0 Z " fill="#7C7C7C" transform="translate(208,64)"/>
<path d="M0 0 C1.06 3.19 0.96 3.87 0.06 6.94 C-0.8 9.92 -1 11.77 -1 15 C-0.34 12.69 0.32 10.38 1 8 C1.33 8 1.66 8 2 8 C2.12 11.93 2.21 15.86 2.27 19.8 C2.31 21.79 2.38 23.79 2.44 25.78 C2.46 27.04 2.47 28.29 2.49 29.58 C2.51 30.74 2.54 31.9 2.57 33.09 C2 36 2 36 -0.34 37.9 C-3 39 -3 39 -6 39 C-5.55 35.35 -4.99 31.97 -3.94 28.44 C-3.02 25.09 -2.93 22.44 -3 19 C-3.28 20.19 -3.55 21.38 -3.84 22.61 C-4.21 24.18 -4.57 25.75 -4.94 27.31 C-5.12 28.1 -5.3 28.88 -5.49 29.69 C-5.67 30.45 -5.84 31.21 -6.03 31.99 C-6.19 32.68 -6.35 33.38 -6.52 34.1 C-6.94 35.75 -7.46 37.38 -8 39 C-17.73 38.37 -25.91 35.91 -33 29 C-35 26 -35 26 -35 22 C-32.97 20.28 -32.97 20.28 -30.14 18.57 C-28.59 17.63 -28.59 17.63 -27.01 16.66 C-25.91 16.01 -24.82 15.36 -23.69 14.69 C-21.57 13.4 -19.45 12.11 -17.32 10.82 C-16.28 10.2 -15.23 9.57 -14.16 8.92 C-9.39 6.02 -4.69 3.02 0 0 Z " fill="#F9F9F9" transform="translate(131,55)"/>
<path d="M0 0 C1.21 -0 2.41 -0 3.66 -0.01 C6.2 -0.01 8.75 0.01 11.3 0.03 C15.2 0.07 19.11 0.05 23.02 0.03 C25.49 0.04 27.96 0.05 30.44 0.06 C31.61 0.06 32.78 0.05 33.99 0.05 C35.07 0.06 36.16 0.08 37.28 0.1 C38.71 0.1 38.71 0.1 40.17 0.11 C42.59 0.63 42.59 0.63 44.41 2.46 C45.95 5.29 45.8 7.46 45.59 10.63 C41.84 12.36 38.92 12.88 34.8 12.87 C33.66 12.87 32.53 12.88 31.35 12.88 C30.14 12.87 28.92 12.87 27.66 12.86 C25.78 12.86 25.78 12.86 23.86 12.86 C21.21 12.85 18.56 12.85 15.91 12.83 C12.51 12.82 9.11 12.81 5.7 12.81 C2.46 12.81 -0.78 12.81 -4.02 12.8 C-5.25 12.8 -6.48 12.79 -7.74 12.79 C-9.43 12.78 -9.43 12.78 -11.15 12.77 C-12.14 12.77 -13.14 12.77 -14.16 12.76 C-16.41 12.63 -16.41 12.63 -17.41 11.63 C-17.92 7.9 -17.75 6.14 -15.67 2.97 C-11.42 -1 -5.44 -0.06 0 0 Z " fill="#F9F9F9" transform="translate(97.4140625,213.37109375)"/>
<path d="M0 0 C0.99 0 1.98 0 3 0 C3.66 1.65 4.32 3.3 5 5 C6.94 4.72 6.94 4.72 9 4 C9.66 3.01 10.32 2.02 11 1 C12.32 1.33 13.64 1.66 15 2 C14.43 5.87 12.51 8.08 10 11 C10.66 13.04 10.66 13.04 12 15 C14.19 15.7 14.19 15.7 16.62 15.75 C17.85 15.84 17.85 15.84 19.1 15.92 C19.73 15.95 20.35 15.97 21 16 C21.66 14.35 22.32 12.7 23 11 C24.32 11.33 25.64 11.66 27 12 C26.74 15.85 26.43 17.56 23.69 20.38 C21 22 21 22 17 22 C16.92 22.87 16.84 23.73 16.75 24.62 C15.88 28.53 14.4 30.82 12 34 C11.53 34.64 11.05 35.28 10.56 35.94 C9 37 9 37 6.69 37.12 C1.55 34.97 -1.84 30.04 -4 25 C-4.08 23.99 -4.16 22.98 -4.25 21.94 C-4.5 20.97 -4.74 20 -5 19 C-7.92 17.33 -7.92 17.33 -11 16 C-12.44 14.12 -12.44 14.12 -13 12 C-12.62 9.25 -12.62 9.25 -12 7 C-10.68 7 -9.36 7 -8 7 C-7.67 8.98 -7.34 10.96 -7 13 C-1.86 13.48 -1.86 13.48 2.44 11 C2.95 10.34 3.47 9.68 4 9 C3.04 8.69 3.04 8.69 2.06 8.38 C0 7 0 7 -0.81 3.94 C-0.87 2.97 -0.94 2 -1 1 C-0.67 0.67 -0.34 0.34 0 0 Z " fill="#161515" transform="translate(42,117)"/>
<path d="M0 0 C4.85 0.1 8.28 1.22 11.79 4.73 C14.31 7.82 15.65 10.35 15.81 14.38 C15.19 19.19 13.87 21.51 10.69 25.06 C6.9 26.95 3.44 27.11 -0.69 26.25 C-4.38 24.16 -6.9 21.52 -9.12 17.94 C-9.95 13.98 -10.43 10.26 -9.69 6.25 C-7.25 3.25 -7.25 3.25 -4.69 1.25 C-3.69 0.25 -3.69 0.25 0 0 Z M-4.69 8.25 C-5.63 10.81 -5.73 12.09 -5 14.75 C-3.15 18.27 -1.28 20.72 2.56 22 C3.14 22.08 3.72 22.16 4.31 22.25 C4.92 16.32 4.92 16.32 2.06 11.31 C-0.37 9.49 -1.72 8.58 -4.69 8.25 Z " fill="#131313" transform="translate(172.6875,33.75)"/>
<path d="M0 0 C4.45 2.75 8.02 6.1 10 11 C10.48 15.32 10.29 17.47 8.19 21.31 C6.03 23.96 4.42 25.68 1.02 26.44 C-3.99 26.72 -6.64 25.99 -10.5 22.69 C-14.28 19.11 -15.16 16.27 -15.31 11.12 C-15.29 7.43 -15.11 6.19 -13.12 2.94 C-9.17 -0.67 -5.17 -1.02 0 0 Z M-10 8 C-11.07 11.31 -11.07 12.8 -9.88 16.12 C-7.85 19.23 -6.33 20.46 -3 22 C-2.34 22 -1.68 22 -1 22 C-0.57 17.74 -0.58 14.99 -3.25 11.62 C-6.2 8.76 -6.2 8.76 -10 8 Z " fill="#121212" transform="translate(222,97)"/>
<path d="M0 0 C2.88 2.44 2.88 2.44 5 5 C5.33 5.33 5.66 5.66 6 6 C6.7 13.02 6.7 13.02 4.12 16.62 C-0.04 19.79 -4.45 22.43 -9 25 C-9.71 23.79 -9.71 23.79 -10.43 22.55 C-11.05 21.48 -11.67 20.41 -12.31 19.31 C-12.93 18.26 -13.54 17.2 -14.18 16.11 C-15.77 13.4 -17.38 10.69 -19 8 C-17.16 6.65 -15.3 5.32 -13.44 4 C-12.4 3.26 -11.37 2.52 -10.31 1.75 C-6.49 -0.27 -4.26 -0.52 0 0 Z " fill="#343434" transform="translate(166,93)"/>
<path d="M0 0 C3.3 0 6.6 0 10 0 C10.14 1.13 10.29 2.27 10.44 3.44 C10.61 6.81 10.61 6.81 12 8 C13.41 8.16 14.83 8.25 16.25 8.32 C17.11 8.36 17.96 8.4 18.84 8.44 C19.74 8.48 20.64 8.52 21.56 8.56 C22.46 8.61 23.37 8.65 24.29 8.69 C26.53 8.8 28.76 8.9 31 9 C31.5 10.49 31.5 10.49 32 12 C31.37 12 30.74 12 30.1 12 C23.56 12 17.02 12.03 10.49 12.1 C8.05 12.12 5.61 12.12 3.17 12.12 C-0.34 12.12 -3.85 12.15 -7.36 12.2 C-8.45 12.19 -9.53 12.18 -10.66 12.17 C-16.03 12.15 -16.03 12.15 -20.8 14.27 C-23.69 17.57 -24.69 20.68 -25 25 C-27.64 25 -30.28 25 -33 25 C-33.29 17.58 -33.29 17.58 -31 14 C-24.72 8.73 -18.32 8.35 -10.44 8.69 C-8.92 8.72 -8.92 8.72 -7.38 8.76 C-4.92 8.81 -2.46 8.9 0 9 C0 6.03 0 3.06 0 0 Z " fill="#D2D2D2" transform="translate(103,200)"/>
<path d="M0 0 C2.29 0.14 4.58 0.29 6.88 0.44 C8.15 0.52 9.43 0.6 10.74 0.68 C13.71 0.89 16.66 1.18 19.62 1.51 C24.87 2.04 30.05 2.14 35.32 2.13 C36.74 2.13 36.74 2.13 38.18 2.14 C40.16 2.14 42.14 2.13 44.11 2.13 C47.12 2.13 50.13 2.13 53.14 2.14 C55.08 2.14 57.01 2.13 58.95 2.13 C60.28 2.14 60.28 2.14 61.64 2.14 C65.56 2.12 69.37 2.01 73.25 1.5 C76.57 1.06 79.69 0.88 83.03 0.9 C84.09 0.91 85.15 0.91 86.23 0.91 C87.85 0.92 87.85 0.92 89.5 0.94 C91.16 0.94 91.16 0.94 92.86 0.95 C95.57 0.96 98.29 0.98 101 1 C100 3 100 3 96.88 4.06 C82.76 7.2 67.4 6.25 53.04 6.3 C50.56 6.31 48.09 6.33 45.61 6.36 C30.45 6.54 15.62 6.46 1 2 C0.67 1.34 0.34 0.68 0 0 Z " fill="#F1F1F1" transform="translate(34,190)"/>
<path d="M0 0 C1.19 0.03 1.19 0.03 2.39 0.05 C2.99 0.08 3.58 0.1 4.19 0.12 C4.68 1.61 4.68 1.61 5.19 3.12 C1.16 5.58 -2.88 8.02 -6.93 10.44 C-8.3 11.27 -9.68 12.1 -11.05 12.94 C-13.02 14.14 -15 15.32 -16.98 16.5 C-17.59 16.88 -18.2 17.26 -18.82 17.65 C-21.61 19.28 -23.35 20.16 -26.61 19.91 C-29.98 18.71 -32.76 16.98 -35.81 15.12 C-34.36 12.21 -32.39 11.88 -29.42 10.59 C-28.32 10.11 -27.22 9.63 -26.08 9.14 C-24.92 8.64 -23.76 8.14 -22.56 7.62 C-21.42 7.13 -20.27 6.63 -19.09 6.11 C-4.69 -0.14 -4.69 -0.14 0 0 Z " fill="#D9D9D9" transform="translate(203.8125,63.875)"/>
<path d="M0 0 C0.66 0 1.32 0 2 0 C2.58 1.05 3.16 2.1 3.75 3.19 C7.2 9.2 11.66 14.01 16.81 18.62 C18 20 18 20 18 23 C17.26 23.39 16.53 23.77 15.77 24.17 C10.82 26.81 6.31 29.38 2 33 C1.34 33 0.68 33 0 33 C0 22.11 0 11.22 0 0 Z " fill="#EAEAEA" transform="translate(29,58)"/>
<path d="M0 0 C-1.43 2.89 -2.9 5.54 -5 8 C-8.81 9 -8.81 9 -12 9 C-9.03 9.5 -9.03 9.5 -6 10 C-6 11.65 -6 13.3 -6 15 C-11.61 15 -17.22 15 -23 15 C-22.87 6.16 -22.87 6.16 -19.38 2.44 C-13.96 -1.7 -6.44 -0.45 0 0 Z " fill="#767070" transform="translate(57,208)"/>
<path d="M0 0 C1.06 3.19 0.96 3.87 0.06 6.94 C-0.8 9.92 -1 11.77 -1 15 C-0.34 12.69 0.32 10.38 1 8 C1.33 8 1.66 8 2 8 C2.12 11.93 2.21 15.86 2.27 19.8 C2.31 21.79 2.38 23.79 2.44 25.78 C2.46 27.04 2.47 28.29 2.49 29.58 C2.51 30.74 2.54 31.9 2.57 33.09 C2 36 2 36 -0.34 37.9 C-3 39 -3 39 -6 39 C-5.55 35.35 -4.99 31.97 -3.94 28.44 C-3.02 25.09 -2.93 22.44 -3 19 C-3.28 20.19 -3.55 21.38 -3.84 22.61 C-4.21 24.18 -4.57 25.75 -4.94 27.31 C-5.12 28.1 -5.3 28.88 -5.49 29.69 C-5.67 30.45 -5.84 31.21 -6.03 31.99 C-6.19 32.68 -6.35 33.38 -6.52 34.1 C-6.94 35.75 -7.46 37.38 -8 39 C-8.66 39 -9.32 39 -10 39 C-8.87 33.57 -7.73 28.14 -6.57 22.71 C-6.2 20.93 -5.82 19.15 -5.45 17.37 C-4.93 14.89 -4.4 12.41 -3.88 9.94 C-3.72 9.17 -3.56 8.4 -3.4 7.61 C-2.23 2.23 -2.23 2.23 0 0 Z " fill="#888888" transform="translate(131,55)"/>
<path d="M0 0 C3.3 0 6.6 0 10 0 C10.14 1.13 10.29 2.27 10.44 3.44 C10.61 6.81 10.61 6.81 12 8 C13.41 8.16 14.83 8.25 16.25 8.32 C17.11 8.36 17.96 8.4 18.84 8.44 C19.74 8.48 20.64 8.52 21.56 8.56 C22.46 8.61 23.37 8.65 24.29 8.69 C26.53 8.8 28.76 8.9 31 9 C31 9.66 31 10.32 31 11 C15.16 11 -0.68 11 -17 11 C-17 10.67 -17 10.34 -17 10 C-9.08 9.5 -9.08 9.5 -1 9 C-0.67 6.03 -0.34 3.06 0 0 Z " fill="#F8F8F8" transform="translate(103,200)"/>
<path d="M0 0 C4.29 0.33 8.58 0.66 13 1 C12.67 1.99 12.34 2.98 12 4 C13.65 3.67 15.3 3.34 17 3 C17.99 4.98 18.98 6.96 20 9 C18.26 10.74 15.85 10.23 13.47 10.32 C11.71 10.38 11.71 10.38 9.92 10.44 C8.64 10.48 7.37 10.52 6.06 10.56 C4.77 10.6 3.48 10.65 2.15 10.69 C-10.56 11.09 -23.28 11.1 -36 11 C-35.67 10.34 -35.34 9.68 -35 9 C-18.83 9 -2.66 9 14 9 C10.59 5.59 9.94 5.62 5.38 5.44 C2.4 5.31 2.4 5.31 0 5 C-0.5 4.01 -0.5 4.01 -1 3 C-0.67 2.01 -0.34 1.02 0 0 Z " fill="#0B0B0B" transform="translate(121,203)"/>
<path d="M0 0 C11.38 1.71 11.38 1.71 16 6 C18.95 10.83 20.59 15.27 20 21 C22.31 21.33 24.62 21.66 27 22 C26.5 23.49 26.5 23.49 26 25 C26 24.34 26 23.68 26 23 C25.05 23.06 24.1 23.12 23.12 23.19 C22.09 23.13 21.06 23.06 20 23 C19.34 22.01 18.68 21.02 18 20 C17.01 20.33 16.02 20.66 15 21 C14.54 19.3 14.54 19.3 14.06 17.56 C13.37 14.21 13.37 14.21 12 13 C9.86 12.84 7.71 12.75 5.56 12.68 C4.25 12.64 2.95 12.6 1.6 12.56 C0.21 12.52 -1.17 12.48 -2.56 12.44 C-3.96 12.39 -5.35 12.35 -6.74 12.31 C-10.16 12.2 -13.58 12.1 -17 12 C-17 11.67 -17 11.34 -17 11 C-7.43 10.67 2.14 10.34 12 10 C11.34 9.01 10.68 8.02 10 7 C10 6.01 10 5.02 10 4 C8.35 4.33 6.7 4.66 5 5 C5 4.34 5 3.68 5 3 C2.53 2.5 2.53 2.5 0 2 C0 1.34 0 0.68 0 0 Z " fill="#3F3F3F" transform="translate(128,202)"/>
<path d="M0 0 C5.18 1.16 7.99 3.56 11.77 7.05 C14.97 9.85 18.46 12.16 22 14.52 C24 16 24 16 25 18 C22.35 19.46 21.11 20 18 20 C17.34 20.66 16.68 21.32 16 22 C15.61 21.28 15.22 20.56 14.81 19.81 C13.12 16.96 13.12 16.96 10.81 14.81 C6.85 10.85 3.25 6.56 0 2 C0 1.34 0 0.68 0 0 Z " fill="#282727" transform="translate(31,59)"/>
<path d="M0 0 C3.08 2.49 4.81 3.99 5.56 7.94 C4.87 11.71 3.3 13.98 1 17 C-1.56 16 -2.8 15.32 -4.3 12.98 C-4.63 12.2 -4.97 11.42 -5.31 10.62 C-5.66 9.85 -6.01 9.08 -6.36 8.29 C-7.08 5.71 -7 4.46 -6 2 C-3.85 0.62 -2.56 0 0 0 Z " fill="#F5F5F5" transform="translate(49,132)"/>
<path d="M0 0 C0 1.32 0 2.64 0 4 C-2.26 5.83 -4.36 7.31 -6.81 8.81 C-7.78 9.44 -7.78 9.44 -8.76 10.08 C-10.45 11.15 -12.22 12.08 -14 13 C-17 12 -17 12 -18.19 9.94 C-18.46 9.3 -18.72 8.66 -19 8 C-17.16 6.65 -15.3 5.32 -13.44 4 C-12.4 3.26 -11.37 2.52 -10.31 1.75 C-6.55 -0.24 -4.19 -0.34 0 0 Z " fill="#D8D8D8" transform="translate(166,93)"/>
<path d="M0 0 C1.32 1.32 2.64 2.64 4 4 C2.62 8.15 -0.28 9.5 -3.81 11.75 C-4.44 12.17 -5.07 12.6 -5.72 13.04 C-10.41 16.06 -10.41 16.06 -13.15 15.8 C-13.76 15.53 -14.37 15.27 -15 15 C-15.33 14.01 -15.66 13.02 -16 12 C-14.93 11.3 -13.86 10.6 -12.75 9.88 C-11.36 8.96 -9.96 8.04 -8.56 7.12 C-7.5 6.43 -7.5 6.43 -6.42 5.73 C-5.75 5.29 -5.07 4.84 -4.38 4.38 C-3.76 3.97 -3.13 3.57 -2.49 3.15 C-0.84 2.05 -0.84 2.05 0 0 Z " fill="#7D7C7C" transform="translate(167,94)"/>
<path d="M0 0 C0.66 0.33 1.32 0.66 2 1 C-2.25 6.62 -6.48 11.69 -11.9 16.2 C-15.82 19.57 -19.39 23.31 -23 27 C-24.58 23.99 -25.44 21.36 -26 18 C-25.67 18.99 -25.34 19.98 -25 21 C-20.85 18.35 -17.24 15.56 -13.62 12.19 C-9.14 8.05 -4.61 3.99 0 0 Z " fill="#353535" transform="translate(211,79)"/>
<path d="M0 0 C0.33 0 0.66 0 1 0 C1.33 1.65 1.66 3.3 2 5 C4.97 5.5 4.97 5.5 8 6 C7.67 6.99 7.34 7.98 7 9 C-3.69 9.87 -14.28 10.12 -25 10 C-25 9.34 -25 8.68 -25 8 C-22.04 6.52 -18.94 6.71 -15.69 6.56 C-10.98 6.35 -7.28 5.99 -3 4 C-2.01 3.67 -1.02 3.34 0 3 C0 2.01 0 1.02 0 0 Z " fill="#080808" transform="translate(146,219)"/>
<path d="M0 0 C0.99 0.33 1.98 0.66 3 1 C3.13 3.61 3.23 6.2 3.31 8.81 C3.38 9.92 3.38 9.92 3.44 11.05 C3.49 13.21 3.49 13.21 3 17 C0.15 19.46 -1.24 20 -5 20 C-4.35 13.05 -2.14 6.62 0 0 Z " fill="#EFEFEF" transform="translate(130,74)"/>
<path d="M0 0 C-0.93 0.56 -1.86 1.11 -2.81 1.69 C-7.34 4.97 -8.7 7.33 -9.69 12.81 C-9.84 14.39 -9.84 14.39 -10 16 C-11.98 16 -13.96 16 -16 16 C-15.89 11.31 -15.72 7.98 -12.88 4.12 C-5.03 -1.68 -5.03 -1.68 0 0 Z " fill="#EEEEEE" transform="translate(73,208)"/>
<path d="M0 0 C3.55 1.55 6.1 3.71 9 6.25 C16.26 12.28 24.04 16.15 33 19 C33 19.33 33 19.66 33 20 C21.05 19.76 10.81 12.35 1.91 5.02 C0 3 0 3 0 0 Z " fill="#313131" transform="translate(180,118)"/>
<path d="M0 0 C0.33 0 0.66 0 1 0 C1.15 1.72 1.15 1.72 1.3 3.48 C2.1 12.11 3.22 20 6.1 28.2 C7.04 31.12 7.56 33.96 8 37 C5 36 5 36 3.87 33.89 C3.54 33.02 3.21 32.15 2.88 31.25 C2.54 30.39 2.21 29.53 1.87 28.64 C0.46 24.36 -0.13 20.42 -0.1 15.92 C-0.09 14.99 -0.09 14.06 -0.09 13.1 C-0.08 12.14 -0.07 11.18 -0.06 10.19 C-0.06 9.21 -0.05 8.23 -0.05 7.22 C-0.04 4.81 -0.02 2.41 0 0 Z " fill="#353535" transform="translate(146,43)"/>
<path d="M0 0 C-1.42 0.93 -1.42 0.93 -2.88 1.88 C-7.12 5.33 -7.42 9.81 -8 15 C-9.65 15 -11.3 15 -13 15 C-12.88 10.17 -12.75 6.95 -9.69 3.06 C-3.97 -1.32 -3.97 -1.32 0 0 Z " fill="#E6E6E6" transform="translate(36,207)"/>
<path d="M0 0 C3.06 0.19 3.06 0.19 5.06 2.19 C4.88 4.69 4.88 4.69 4.06 7.19 C1.06 9.19 1.06 9.19 -1.06 8.88 C-2.94 8.19 -2.94 8.19 -3.94 7.19 C-4.06 4.19 -4.06 4.19 -3.94 1.19 C-2.94 0.19 -2.94 0.19 0 0 Z " fill="#131313" transform="translate(73.9375,107.8125)"/>
<path d="M0 0 C2.56 0.19 2.56 0.19 4.56 2.19 C4.81 4.69 4.81 4.69 4.56 7.19 C2.56 9.19 2.56 9.19 0.06 9.5 C-1.18 9.35 -1.18 9.35 -2.44 9.19 C-4.44 6.19 -4.44 6.19 -4.12 3.56 C-3.16 0.24 -3.16 0.24 0 0 Z " fill="#151515" transform="translate(32.4375,106.8125)"/>
<path d="M0 0 C2.31 0 4.62 0 7 0 C7 0.99 7 1.98 7 3 C5.81 3 4.61 3.01 3.38 3.01 C-9.42 3.23 -9.42 3.23 -20 10 C-20.51 10.56 -21.01 11.12 -21.54 11.7 C-23 13 -23 13 -26 13 C-24.55 9.4 -22.81 7.89 -19.56 5.81 C-18.39 5.05 -18.39 5.05 -17.19 4.27 C-13.43 2.09 -10.08 1.76 -5.81 1.44 C-4.18 1.31 -4.18 1.31 -2.52 1.18 C-1.69 1.12 -0.86 1.06 0 1 C0 0.67 0 0.34 0 0 Z " fill="#969696" transform="translate(44,198)"/>
<path d="M0 0 C5.83 3.8 11.48 7.76 17 12 C16.01 12.33 15.02 12.66 14 13 C14 12.34 14 11.68 14 11 C13.01 11 12.02 11 11 11 C10.34 11.66 9.68 12.32 9 13 C7.49 11.21 6 9.42 4.5 7.62 C3.66 6.63 2.83 5.63 1.97 4.6 C0 2 0 2 0 0 Z " fill="#D7D7D7" transform="translate(39,64)"/>
<path d="M0 0 C7.92 0 15.84 0 24 0 C23.67 0.66 23.34 1.32 23 2 C18.18 3.47 14.08 4.25 9 4 C9 3.34 9 2.68 9 2 C6.03 1.67 3.06 1.34 0 1 C0 0.67 0 0.34 0 0 Z " fill="#4E4E4E" transform="translate(111,191)"/>
<path d="M0 0 C1.32 0.33 2.64 0.66 4 1 C4 2.98 4 4.96 4 7 C-3.26 7 -10.52 7 -18 7 C-18 6.67 -18 6.34 -18 6 C-9.58 5.5 -9.58 5.5 -1 5 C-2.32 4.34 -3.64 3.68 -5 3 C-3.35 3 -1.7 3 0 3 C0 2.01 0 1.02 0 0 Z " fill="#000000" transform="translate(98,202)"/>
<path d="M0 0 C4.16 0.19 5.75 0.77 8.88 3.62 C11.32 7.51 11.61 9.5 11 14 C10.34 14.66 9.68 15.32 9 16 C8.77 14.8 8.55 13.61 8.31 12.38 C6.96 6.91 3.94 3.94 0 0 Z " fill="#323232" transform="translate(173,38)"/>
<path d="M0 0 C3.64 0.25 5.56 0.63 8.38 3 C10.58 7.07 10.36 10.47 10 15 C9.67 15 9.34 15 9 15 C8.75 13.95 8.5 12.9 8.25 11.81 C6.83 6.83 3.7 3.52 0 0 Z " fill="#343434" transform="translate(217,101)"/>
<path d="M0 0 C1.45 0.03 1.45 0.03 2.94 0.06 C2.94 1.71 2.94 3.36 2.94 5.06 C0.3 5.06 -2.34 5.06 -5.06 5.06 C-3.94 0.08 -3.94 0.08 0 0 Z " fill="#ADADAD" transform="translate(48.0625,217.9375)"/>
<path d="M0 0 C-0.33 2.97 -0.66 5.94 -1 9 C-2.65 9 -4.3 9 -6 9 C-6 6.69 -6 4.38 -6 2 C-5.67 2.66 -5.34 3.32 -5 4 C-4.36 3.34 -3.72 2.68 -3.06 2 C-1 0 -1 0 0 0 Z " fill="#020202" transform="translate(70,216)"/>
<path d="M0 0 C3.63 0 7.26 0 11 0 C11 0.99 11 1.98 11 3 C7.37 3.33 3.74 3.66 0 4 C0 2.68 0 1.36 0 0 Z " fill="#656262" transform="translate(66,200)"/>
<path d="M0 0 C0.33 0 0.66 0 1 0 C1 3.96 1 7.92 1 12 C-0.32 12.33 -1.64 12.66 -3 13 C-3.33 11.02 -3.66 9.04 -4 7 C-3.34 7 -2.68 7 -2 7 C-1.34 4.69 -0.68 2.38 0 0 Z " fill="#7B7B7B" transform="translate(132,63)"/>
<path d="M0 0 C-1.5 1.24 -2.99 2.47 -4.49 3.71 C-5.71 4.75 -6.87 5.87 -8 7 C-8.66 7 -9.32 7 -10 7 C-10.99 7.5 -10.99 7.5 -12 8 C-11.63 5.37 -11.29 4.25 -9.26 2.48 C-8.2 1.84 -8.2 1.84 -7.12 1.19 C-6.43 0.75 -5.73 0.31 -5.01 -0.14 C-3 -1 -3 -1 0 0 Z " fill="#CCCCCC" transform="translate(36,207)"/>
<path d="M0 0 C0.91 0.3 0.91 0.3 1.84 0.61 C0.57 1.78 -0.7 2.95 -1.98 4.11 C-3.04 5.08 -3.04 5.08 -4.12 6.07 C-6.16 7.61 -6.16 7.61 -9.16 7.61 C-7.62 3.67 -4.67 -0.85 0 0 Z " fill="#5F5F5F" transform="translate(27.1640625,203.39453125)"/>
<path d="M0 0 C1.98 0 3.96 0 6 0 C6 1.65 6 3.3 6 5 C4.02 5 2.04 5 0 5 C0 3.35 0 1.7 0 0 Z " fill="#8E8E8E" transform="translate(92,200)"/>
<path d="M0 0 C5.66 1.48 5.66 1.48 7.38 4.12 C7.68 5.05 7.68 5.05 8 6 C7.34 6 6.68 6 6 6 C6 6.99 6 7.98 6 9 C4.99 7.88 4 6.75 3 5.62 C2.44 5 1.89 4.37 1.31 3.73 C0 2 0 2 0 0 Z " fill="#575757" transform="translate(31,59)"/>
<path d="M0 0 C2 2 2 2 2 5 C2.66 5 3.32 5 4 5 C3.67 5.66 3.34 6.32 3 7 C2.01 6.67 1.02 6.34 0 6 C0 6.66 0 7.32 0 8 C-1.32 8 -2.64 8 -4 8 C-2.67 5.33 -1.33 2.67 0 0 Z " fill="#707070" transform="translate(129,180)"/>
<path d="M0 0 C0.33 0.66 0.66 1.32 1 2 C1.66 2 2.32 2 3 2 C3 3.65 3 5.3 3 7 C1.68 7 0.36 7 -1 7 C-1 7.66 -1 8.32 -1 9 C-0.34 9.33 0.32 9.66 1 10 C0.01 10 -0.98 10 -2 10 C-1.54 6.53 -1.11 3.33 0 0 Z " fill="#8D8D8D" transform="translate(127,84)"/>
<path d="M0 0 C3.3 0 6.6 0 10 0 C9.67 0.66 9.34 1.32 9 2 C6.93 2.41 6.93 2.41 4.44 2.62 C3.61 2.7 2.78 2.77 1.93 2.85 C0.98 2.93 0.98 2.93 0 3 C0 2.01 0 1.02 0 0 Z " fill="#D8D8D8" transform="translate(125,191)"/>
<path d="M0 0 C4.95 0.33 9.9 0.66 15 1 C15 1.33 15 1.66 15 2 C13.25 2.22 11.5 2.43 9.75 2.62 C8.78 2.74 7.8 2.86 6.8 2.98 C3.87 3 2.45 2.53 0 1 C0 0.67 0 0.34 0 0 Z " fill="#CDCDCD" transform="translate(34,190)"/>
<path d="M0 0 C1.94 0.31 1.94 0.31 4 1 C4.33 1.99 4.66 2.98 5 4 C3.35 4.33 1.7 4.66 0 5 C0 3.35 0 1.7 0 0 Z " fill="#6C6C6C" transform="translate(49,74)"/>
</svg>
